<?xml version="1.0" ?>
<!-- Uploaded to: SVG Repo, www.svgrepo.com, Generator: SVG Repo Mixer Tools -->
<svg fill="#000000" width="800px" height="800px" viewBox="0 0 32 32" xmlns="http://www.w3.org/2000/svg">
<title/>
<g data-name="Layer 17" id="Layer_17">
<path d="M25,19a1,1,0,0,1-1-1V14a1,1,0,0,1,2,0v4A1,1,0,0,1,25,19Z"/>
<path d="M7,23a1,1,0,0,1-1-1V10a1,1,0,0,1,2,0V22A1,1,0,0,1,7,23Z"/>
<path d="M11,23a1,1,0,0,1-1-1V10a1,1,0,0,1,2,0V22A1,1,0,0,1,11,23Z"/>
<path d="M15,23a1,1,0,0,1-1-1V10a1,1,0,0,1,2,0V22A1,1,0,0,1,15,23Z"/>
<path d="M19,23a1,1,0,0,1-1-1V10a1,1,0,0,1,2,0V22A1,1,0,0,1,19,23Z"/>
<path d="M23,26H7a5,5,0,0,1-5-5V11A5,5,0,0,1,7,6H23a3,3,0,0,1,3,3v1h1a3,3,0,0,1,3,3v6a3,3,0,0,1-3,3H26v1A3,3,0,0,1,23,26ZM7,8a3,3,0,0,0-3,3V21a3,3,0,0,0,3,3H23a1,1,0,0,0,1-1V21a1,1,0,0,1,1-1h2a1,1,0,0,0,1-1V13a1,1,0,0,0-1-1H25a1,1,0,0,1-1-1V9a1,1,0,0,0-1-1Z"/>
<path d="M7,25H23c1.1,0,2.43-.49,2.43-1.6L25,20H16c-5.37,0-12-3-12-5.58L3,21A4,4,0,0,0,7,25Z"/>
</g>
</svg>